<?xml version="1.0" standalone="no"?>
<!DOCTYPE svg PUBLIC "-//W3C//DTD SVG 20010904//EN"
 "http://www.w3.org/TR/2001/REC-SVG-20010904/DTD/svg10.dtd">
<svg version="1.0" xmlns="http://www.w3.org/2000/svg"
 width="512.000000pt" height="512.000000pt" viewBox="0 0 512.000000 512.000000"
 preserveAspectRatio="xMidYMid meet">
<metadata>
Created by potrace 1.16, written by Peter Selinger 2001-2019
</metadata>
<g transform="translate(0.000000,512.000000) scale(0.100000,-0.100000)"
fill="#000000" stroke="none">
<path d="M2600 4645 c0 -19 5 -26 18 -24 43 4 42 15 42 -347 0 -332 4 -384 30
-384 6 0 10 121 10 321 l0 321 43 -7 c61 -10 193 -43 223 -57 22 -10 25 -16
19 -42 -25 -116 -15 -139 63 -151 52 -8 62 -17 62 -58 0 -23 7 -31 38 -42 20
-8 63 -28 94 -45 60 -32 73 -36 63 -20 -3 5 -25 18 -49 29 -36 15 -47 27 -61
64 -10 28 -32 58 -56 77 -21 17 -39 36 -38 43 0 9 2 9 5 0 3 -6 20 -23 39 -37
l33 -26 21 43 c26 53 26 64 2 104 -20 32 -105 96 -128 96 -7 0 -13 5 -13 10 0
5 -7 6 -16 3 -8 -3 -13 -2 -10 3 13 20 -232 90 -314 91 -24 0 -40 7 -55 24
-11 13 -30 27 -42 31 -20 5 -23 3 -23 -20z m288 -82 c36 -9 61 -18 55 -20 -12
-4 -174 24 -181 32 -11 11 63 4 126 -12z m218 -148 c65 -32 102 -71 86 -87 -9
-9 -12 -9 -12 0 0 19 -81 56 -100 45 -11 -7 -19 -6 -29 4 -7 8 -22 12 -32 10
-14 -4 -19 0 -19 17 0 45 32 48 106 11z"/>
<path d="M2345 4609 c-183 -26 -432 -127 -465 -188 -8 -16 -6 -23 11 -35 26
-18 49 -61 49 -91 0 -44 -41 -87 -110 -114 -50 -20 -66 -31 -68 -49 -5 -35 24
-38 86 -8 32 14 82 35 112 45 52 17 55 20 63 59 8 39 10 41 52 48 57 8 79 32
71 78 -10 55 -27 61 -74 26 -48 -34 -52 -36 -52 -16 0 8 -9 21 -20 29 -18 13
-17 14 24 34 40 20 44 20 60 5 16 -16 19 -15 37 10 24 32 105 60 229 80 l80
12 0 43 c0 28 -4 43 -12 42 -7 -1 -40 -5 -73 -10z m-238 -261 c-3 -7 -5 -2 -5
12 0 14 2 19 5 13 2 -7 2 -19 0 -25z m-102 -88 c-28 -12 -37 -12 -30 0 3 6 16
10 28 9 21 0 21 -1 2 -9z"/>
<path d="M1696 4299 c-14 -11 -26 -27 -26 -34 0 -7 -14 -27 -31 -45 -23 -23
-30 -36 -25 -53 19 -66 18 -104 -3 -145 -16 -32 -29 -43 -58 -51 -21 -6 -43
-11 -50 -11 -22 0 -53 -53 -79 -134 -20 -64 -24 -92 -20 -135 8 -65 -21 -308
-39 -337 -8 -12 -23 -20 -36 -20 -22 1 -24 -5 -36 -99 -24 -183 -13 -315 26
-315 17 0 19 13 24 133 4 101 10 147 27 195 30 84 35 74 7 -13 -18 -58 -21
-95 -22 -215 0 -80 3 -156 7 -170 4 -14 5 -19 2 -12 -8 18 -28 15 -58 -9 -20
-16 -24 -24 -15 -30 8 -4 13 -30 13 -67 l1 -59 37 5 c29 3 37 1 42 -14 3 -11
4 14 3 54 -3 73 1 83 22 58 24 -28 31 -85 36 -271 6 -206 10 -222 65 -250 37
-19 37 -17 11 97 -28 123 -31 163 -15 193 9 18 14 62 14 134 0 58 3 123 7 144
5 36 8 39 34 35 17 -3 29 0 29 6 0 6 18 46 40 89 45 88 47 96 22 127 -17 21
-20 21 -52 8 -70 -30 -148 -144 -155 -226 -2 -36 -6 -42 -24 -42 -17 0 -21 96
-7 190 15 109 41 166 86 195 49 32 48 54 -4 164 -54 115 -58 160 -25 267 18
58 30 78 77 124 59 58 70 86 71 191 1 59 31 126 82 186 55 62 63 83 55 137 -8
52 -20 57 -60 25z m-12 -114 c-9 -14 -19 -23 -22 -20 -5 4 26 45 35 45 2 0 -4
-11 -13 -25z"/>
<path d="M3350 4236 c0 -83 11 -112 54 -137 22 -13 59 -57 100 -119 69 -102
83 -140 46 -120 -14 8 -26 8 -40 0 -23 -12 -43 -47 -35 -60 3 -5 -13 -3 -36 3
-50 15 -80 51 -90 109 l-6 43 -2 -40 c-2 -71 59 -135 128 -135 25 0 84 -69
118 -138 19 -40 28 -75 31 -131 4 -69 1 -85 -27 -155 -17 -42 -31 -84 -31 -91
0 -8 20 -37 44 -64 59 -67 96 -178 96 -290 0 -51 -5 -84 -14 -97 -14 -18 -15
-18 -21 11 -29 127 -40 150 -102 217 -95 101 -153 28 -85 -108 16 -32 35 -76
42 -97 10 -33 15 -38 35 -33 22 6 22 5 27 -127 3 -72 10 -143 16 -157 l11 -25
0 27 c1 15 -4 39 -9 55 -10 27 -9 27 6 8 13 -16 15 -36 10 -103 -3 -46 -9 -89
-15 -95 -11 -14 -42 -129 -36 -135 2 -3 17 3 32 12 l28 17 -27 -23 c-26 -22
-27 -26 -17 -63 6 -22 14 -44 19 -48 16 -18 50 15 90 87 40 74 41 75 75 69 30
-5 35 -3 35 15 0 11 -5 22 -12 24 -8 3 -8 9 -2 19 5 8 14 37 20 64 10 42 12
45 14 20 2 -30 2 -30 10 -5 4 14 8 36 8 50 1 23 0 23 -8 5 -5 -13 -8 20 -8 90
1 101 1 105 8 42 9 -91 26 -107 35 -33 11 88 -13 200 -36 165 -7 -12 -9 -11
-9 1 0 9 5 21 11 27 16 16 -60 76 -78 61 -16 -13 -11 3 24 71 19 39 23 61 23
148 0 117 -23 250 -46 273 -12 10 -14 11 -9 1 5 -9 3 -12 -6 -9 -15 5 -18 20
-48 216 -18 113 -18 126 -4 160 13 31 14 45 3 87 -7 28 -23 71 -36 97 -20 40
-30 48 -74 63 -76 25 -110 76 -110 164 -1 62 -3 69 -43 121 -24 30 -51 56 -60
58 -15 3 -17 -6 -17 -62z m367 -1123 c-3 -10 -5 -4 -5 12 0 17 2 24 5 18 2 -7
2 -21 0 -30z m-19 -410 c-1 -38 -2 -101 0 -140 l2 -73 28 12 c46 20 55 35 63
105 6 55 7 43 6 -62 -1 -71 -6 -135 -10 -142 -6 -9 -16 -8 -42 3 -19 8 -38 14
-43 14 -4 0 -14 -23 -21 -50 -7 -28 -22 -60 -33 -73 l-19 -22 15 25 c23 38 36
141 36 281 0 117 6 189 17 189 2 0 3 -30 1 -67z"/>
<path d="M2245 4204 c-34 -35 -1 -83 48 -70 35 8 48 53 22 73 -25 18 -50 17
-70 -3z"/>
<path d="M2788 4195 c-9 -21 -8 -28 7 -45 32 -36 85 -20 85 25 0 49 -71 65
-92 20z"/>
<path d="M2434 4040 c0 -74 1 -105 3 -67 2 37 2 97 0 135 -2 37 -3 6 -3 -68z"/>
<path d="M2985 4103 c-63 -17 -93 -65 -115 -186 -12 -66 -14 -69 -64 -101 -71
-46 -85 -65 -115 -154 -21 -62 -30 -77 -46 -77 -19 0 -20 5 -16 87 2 53 -2
109 -10 140 l-14 53 -5 -135 -5 -134 -62 -11 c-34 -6 -67 -9 -72 -5 -6 3 -24
46 -42 95 -34 96 -38 102 -114 141 -27 15 -51 28 -53 29 -2 2 -12 42 -22 89
-11 47 -26 96 -35 110 -26 39 -93 60 -166 52 -100 -12 -105 -16 -112 -103 -3
-41 -12 -85 -21 -98 -8 -13 -54 -46 -101 -75 -53 -32 -91 -62 -100 -80 -18
-34 -21 -282 -5 -341 7 -23 33 -57 75 -98 l65 -63 0 -74 c0 -58 3 -74 15 -74
11 0 15 17 17 71 l3 71 47 -37 c57 -43 73 -71 83 -145 4 -30 15 -63 24 -74 9
-10 63 -42 121 -72 58 -30 134 -69 169 -88 66 -36 91 -36 105 -1 10 28 -12 53
-82 91 -114 62 -143 84 -157 118 -8 19 -30 54 -50 80 l-35 46 0 170 c0 167 0
170 -24 185 -22 15 -56 12 -56 -6 0 -10 41 -49 52 -49 4 0 8 -69 8 -154 0
-154 0 -155 28 -187 15 -18 41 -57 57 -87 27 -51 39 -60 125 -108 102 -56 123
-75 102 -96 -10 -10 -44 3 -175 71 -89 46 -167 89 -174 95 -7 6 -17 45 -23 86
-14 101 -75 202 -113 187 -9 -3 -37 18 -70 51 -69 70 -79 105 -75 262 l3 115
38 6 c34 5 36 5 22 -11 -21 -23 -21 -126 0 -134 12 -4 15 -24 15 -86 0 -54 4
-80 12 -80 8 0 9 35 5 133 l-7 132 43 27 c23 14 69 39 103 56 73 37 80 45 87
101 6 47 18 61 55 61 17 0 27 -9 37 -33 19 -45 120 -181 178 -239 69 -68 117
-88 213 -88 90 0 138 17 198 70 53 47 163 190 187 244 16 36 25 46 44 46 26 0
55 -33 55 -62 0 -41 25 -68 99 -107 122 -64 113 -46 112 -211 l-1 -145 -35
-52 c-19 -29 -35 -57 -35 -61 0 -5 -9 -17 -21 -28 -32 -29 -41 -52 -55 -137
-7 -46 -20 -87 -30 -98 -29 -33 -335 -182 -347 -170 -16 16 4 33 103 91 76 45
92 59 116 104 15 28 40 67 56 87 l28 37 1 163 c2 208 5 224 44 224 23 0 31 5
33 23 3 19 -1 22 -32 22 -20 0 -39 0 -43 0 -5 0 -10 -94 -13 -209 l-5 -209
-31 -43 c-17 -24 -42 -65 -57 -91 -22 -38 -41 -54 -105 -89 -123 -67 -148
-100 -100 -133 20 -14 25 -14 67 11 26 15 102 57 170 93 68 36 127 72 131 80
4 8 12 25 18 37 7 13 12 35 12 50 0 74 13 106 58 147 126 114 175 164 190 191
21 41 30 262 12 304 -7 17 -45 60 -86 96 -40 36 -75 74 -78 83 -3 9 -42 35
-86 57 -44 22 -80 43 -80 48 0 11 10 8 38 -12 29 -20 107 -61 117 -61 4 0 4
12 1 28 -2 15 -7 48 -11 73 -6 46 -9 49 -55 63 -3 1 -11 5 -18 9 -16 11 -111
18 -137 10z m-975 -134 c-82 -39 -89 -36 -15 4 33 19 64 31 68 29 4 -2 -20
-17 -53 -33z m35 -81 c-4 -35 -12 -69 -19 -76 -21 -21 -166 -90 -166 -78 0 6
36 30 79 54 67 35 80 47 85 72 3 17 9 44 12 60 10 53 16 32 9 -32z m1041 -23
c9 -37 14 -42 104 -91 52 -28 108 -63 124 -78 l29 -26 -5 -128 c-9 -214 -33
-217 -44 -6 -3 74 -12 138 -19 149 -7 11 -53 44 -103 74 -96 57 -93 53 -106
146 -7 48 7 21 20 -40z m181 -397 c-2 -18 -4 -4 -4 32 0 36 2 50 4 33 2 -18 2
-48 0 -65z"/>
<path d="M3626 4043 c2 -29 6 -62 9 -74 5 -16 4 -20 -6 -14 -8 4 0 -6 16 -23
17 -17 36 -38 43 -47 7 -8 18 -15 25 -15 7 0 3 7 -7 15 -11 8 -14 15 -8 15 9
0 8 7 -3 23 -8 13 -13 25 -11 28 2 2 -10 36 -28 74 l-32 70 2 -52z"/>
<path d="M1560 4070 c0 -5 5 -10 10 -10 6 0 10 5 10 10 0 6 -4 10 -10 10 -5 0
-10 -4 -10 -10z"/>
<path d="M3531 4067 c-17 -17 -13 -52 7 -69 19 -17 65 -31 57 -18 -3 5 -1 11
5 15 16 10 12 40 -7 57 -26 22 -49 28 -62 15z"/>
<path d="M1749 3989 c-22 -22 -21 -37 4 -53 23 -15 51 4 55 36 4 34 -32 44
-59 17z m49 -16 c5 -17 -26 -29 -40 -15 -6 6 -7 15 -3 22 9 14 37 9 43 -7z"/>
<path d="M1454 3965 c-22 -33 -64 -136 -63 -155 1 -13 1 -13 6 0 3 8 14 39 25
68 11 29 31 66 45 82 13 17 20 30 14 30 -6 0 -18 -11 -27 -25z"/>
<path d="M3377 3952 c-32 -35 -14 -97 35 -123 17 -9 25 -5 59 30 21 22 39 44
39 49 0 18 -46 50 -81 56 -27 5 -39 2 -52 -12z"/>
<path d="M3719 3829 c-3 -14 0 -30 8 -37 15 -15 16 -4 4 38 l-7 25 -5 -26z"/>
<path d="M4046 3785 c4 -11 13 -29 21 -40 16 -23 19 -345 3 -361 -6 -6 -6 -15
1 -24 8 -13 11 -12 24 4 10 14 12 23 4 32 -7 8 -10 75 -8 184 l2 171 -27 27
c-22 22 -26 23 -20 7z"/>
<path d="M4016 3750 c35 -52 51 -52 22 0 -13 22 -29 40 -36 40 -8 0 -2 -15 14
-40z"/>
<path d="M3740 3747 c0 -14 5 -29 10 -32 7 -4 8 3 4 22 -9 38 -14 42 -14 10z"/>
<path d="M2140 3532 l0 -230 60 -55 c33 -29 60 -59 60 -65 0 -7 5 -12 10 -12
6 0 10 -11 10 -24 0 -59 19 -82 103 -127 l82 -44 5 -115 c5 -108 4 -116 -17
-141 -33 -39 -28 -48 7 -14 l31 29 -3 126 -3 125 -79 41 c-88 46 -106 64 -106
107 0 40 -11 57 -80 123 l-61 58 2 220 c1 154 -2 221 -10 224 -8 3 -11 -62
-11 -226z"/>
<path d="M2959 3753 c0 -4 0 -104 1 -222 l1 -214 -65 -61 c-53 -50 -66 -68
-71 -101 -13 -84 -13 -84 -83 -119 -38 -19 -73 -41 -80 -48 -7 -9 -12 -62 -14
-136 -2 -97 -5 -119 -15 -110 -9 7 -13 45 -13 134 0 139 -2 134 82 192 43 30
46 34 52 91 l7 61 72 48 c40 27 74 57 76 68 3 17 -1 16 -25 -7 -16 -15 -54
-42 -85 -62 -58 -36 -69 -57 -69 -127 0 -22 -11 -36 -50 -65 -78 -57 -80 -63
-80 -200 l0 -121 45 -44 c25 -24 45 -39 45 -34 0 6 -8 18 -18 27 -15 14 -16
29 -11 136 4 66 10 124 13 130 4 6 37 26 75 46 67 35 91 63 91 105 0 11 3 19
8 19 28 -5 34 3 29 34 -4 29 1 37 49 83 l54 50 0 222 c0 136 -4 223 -10 227
-5 3 -10 3 -11 -2z"/>
<path d="M930 3620 c-1 -47 -4 -99 -6 -117 -2 -18 1 -35 7 -39 13 -8 30 16 22
29 -3 5 -9 55 -13 111 l-7 101 -3 -85z"/>
<path d="M3725 3669 c-9 -17 -15 -33 -13 -35 3 -2 12 12 21 31 21 43 13 47 -8
4z"/>
<path d="M1295 3642 c-25 -59 -28 -199 -6 -226 14 -16 15 -16 27 6 15 28 29
205 20 242 -9 37 -18 32 -41 -22z m21 -84 c-4 -44 -11 -88 -17 -97 -7 -12 -9
-9 -4 14 3 17 6 60 8 97 1 38 6 68 11 68 5 0 6 -35 2 -82z"/>
<path d="M3736 3646 c-14 -30 -15 -48 -6 -127 11 -94 22 -130 34 -111 3 6 2
30 -4 54 -5 24 -9 61 -8 83 0 31 2 25 9 -24 15 -118 47 -101 35 19 -7 81 -14
103 -31 96 -8 -3 -10 4 -7 20 6 34 -3 30 -22 -10z"/>
<path d="M1366 3578 c-4 -40 -9 -89 -12 -108 -4 -24 -3 -31 4 -21 6 8 13 48
17 90 3 42 9 84 11 94 3 9 1 17 -4 17 -5 0 -12 -33 -16 -72z"/>
<path d="M1530 3605 c-18 -19 -25 -40 -28 -83 -4 -51 -1 -62 21 -87 22 -27 27
-28 51 -17 27 12 27 12 24 109 -3 90 -5 98 -23 101 -12 2 -31 -8 -45 -23z m55
-81 l0 -89 -27 -3 c-23 -3 -30 2 -39 25 -17 45 -6 123 21 145 38 31 45 18 45
-78z"/>
<path d="M3488 3518 c-2 -57 1 -107 5 -113 5 -5 5 -1 1 9 -5 13 -4 17 4 12 9
-5 12 19 12 93 0 56 -4 101 -9 101 -5 0 -11 -46 -13 -102z"/>
<path d="M1984 3555 c-7 -18 3 -35 22 -35 20 0 30 30 13 41 -20 12 -29 11 -35
-6z"/>
<path d="M2890 3415 c0 -42 3 -55 15 -55 12 0 15 13 15 55 0 42 -3 55 -15 55
-12 0 -15 -13 -15 -55z"/>
<path d="M1332 3405 c-17 -37 -14 -45 4 -12 9 16 14 31 11 33 -2 2 -9 -7 -15
-21z"/>
<path d="M3539 3413 c-13 -16 -12 -17 4 -4 16 13 21 21 13 21 -2 0 -10 -8 -17
-17z"/>
<path d="M2180 3390 c0 -16 6 -33 13 -37 8 -4 16 -15 19 -24 4 -9 38 -38 77
-63 65 -43 71 -51 71 -81 0 -55 15 -80 80 -130 38 -30 58 -40 52 -28 -6 11
-21 27 -34 35 -62 41 -78 65 -78 116 l0 50 -64 41 c-75 49 -98 73 -96 98 5 40
0 53 -20 53 -15 0 -20 -7 -20 -30z"/>
<path d="M3263 3140 c0 -25 2 -35 4 -22 2 12 2 32 0 45 -2 12 -4 2 -4 -23z"/>
<path d="M3557 3173 c-10 -10 -8 -51 2 -58 14 -8 32 30 25 49 -7 17 -16 20
-27 9z"/>
<path d="M1487 3164 c-12 -13 -7 -52 7 -57 18 -7 39 17 34 40 -3 18 -29 29
-41 17z m23 -31 c0 -22 -2 -25 -10 -13 -13 20 -13 40 0 40 6 0 10 -12 10 -27z"/>
<path d="M2524 3146 c-12 -31 0 -51 31 -51 27 0 30 3 30 30 0 25 -4 30 -28 33
-17 2 -29 -2 -33 -12z m46 -21 c0 -8 -7 -15 -15 -15 -8 0 -15 7 -15 15 0 8 7
15 15 15 8 0 15 -7 15 -15z"/>
<path d="M3620 3140 c6 -11 13 -20 16 -20 2 0 0 9 -6 20 -6 11 -13 20 -16 20
-2 0 0 -9 6 -20z"/>
<path d="M896 3106 l-36 -43 0 -297 c0 -191 4 -296 10 -296 6 0 10 105 10 295
l0 295 35 39 c19 21 35 41 35 45 0 17 -22 2 -54 -38z"/>
<path d="M1747 3113 c-10 -16 -18 -93 -12 -103 14 -22 35 12 35 56 0 40 -12
65 -23 47z"/>
<path d="M4108 2740 c-2 -283 0 -360 10 -360 9 0 12 79 12 360 0 227 -4 360
-10 360 -6 0 -11 -135 -12 -360z"/>
<path d="M3820 3080 c0 -5 20 -10 44 -10 41 0 47 -4 85 -49 l41 -49 0 -196 c0
-124 4 -196 10 -196 6 0 10 73 10 200 l0 201 -41 54 c-41 55 -42 55 -95 55
-30 0 -54 -4 -54 -10z"/>
<path d="M1503 3058 c-26 -29 -56 -88 -49 -96 3 -3 6 -1 6 5 0 6 15 34 34 62
38 56 40 62 9 29z"/>
<path d="M3566 3060 c12 -14 36 -47 53 -74 17 -28 31 -45 31 -40 0 17 -55 98
-81 119 l-24 20 21 -25z"/>
<path d="M1173 3064 c-6 -3 -23 -21 -38 -40 -27 -35 -27 -35 -26 -207 1 -172
7 -237 20 -237 4 0 6 91 4 203 l-3 203 29 32 c19 20 39 32 55 32 14 0 26 5 26
10 0 10 -45 13 -67 4z"/>
<path d="M1047 2982 c-15 -17 -17 -60 -17 -409 0 -451 -17 -380 134 -548 187
-206 176 -191 176 -235 0 -34 7 -48 39 -83 22 -23 43 -39 47 -35 4 4 -10 26
-30 48 -29 32 -36 48 -36 81 0 38 -8 50 -123 177 -67 76 -137 154 -155 175
l-32 38 0 377 c0 317 2 381 15 398 27 35 12 49 -18 16z"/>
<path d="M1691 2940 c-18 -33 -30 -60 -27 -60 7 0 69 111 64 115 -2 2 -19 -23
-37 -55z"/>
<path d="M3390 2964 c0 -6 7 -19 16 -30 14 -18 14 -18 3 6 -14 31 -19 36 -19
24z"/>
<path d="M3435 2880 c9 -16 18 -30 21 -30 2 0 -2 14 -11 30 -9 17 -18 30 -21
30 -2 0 2 -13 11 -30z"/>
<path d="M3672 2850 c0 -14 2 -19 5 -12 2 6 2 18 0 25 -3 6 -5 1 -5 -13z"/>
<path d="M1695 2805 c-33 -14 -61 -25 -62 -25 -5 0 -3 -40 1 -40 2 0 20 7 39
15 47 19 190 19 282 0 38 -8 125 -33 193 -56 91 -30 127 -38 135 -30 18 18 -7
34 -123 79 -218 86 -354 103 -465 57z"/>
<path d="M3175 2823 c-121 -27 -353 -116 -369 -142 -17 -26 31 -20 146 18 237
78 378 94 472 52 l47 -20 -3 22 c-2 15 -20 30 -57 50 -47 23 -66 27 -135 26
-45 -1 -90 -3 -101 -6z"/>
<path d="M4060 2661 c0 -103 -4 -172 -10 -176 -6 -3 -10 -50 -10 -106 l0 -100
-175 -204 c-160 -186 -175 -207 -175 -242 0 -34 -11 -50 -95 -143 -52 -58 -94
-111 -95 -118 0 -22 23 -1 118 107 82 92 92 108 92 142 0 35 15 55 174 239
l175 202 6 107 c13 241 16 461 5 461 -6 0 -10 -58 -10 -169z"/>
<path d="M1260 2757 c-9 -14 -15 -55 -16 -112 -1 -84 -1 -86 6 -25 l6 65 4
-70 c2 -38 2 -78 2 -88 -4 -35 17 -140 29 -151 9 -8 10 -6 4 9 -4 11 -9 103
-12 205 -3 102 -6 186 -7 187 -1 1 -8 -8 -16 -20z"/>
<path d="M3055 2708 c-40 -13 -49 -15 -58 -16 -5 0 -23 -11 -40 -24 -35 -27
-171 -92 -163 -79 5 8 -63 5 -110 -4 -24 -5 -58 -69 -72 -132 -10 -49 10 -455
23 -441 2 3 27 261 28 296 0 17 16 15 23 -3 4 -8 11 -12 17 -8 6 4 7 1 3 -6
-7 -11 56 -121 69 -121 6 0 -6 23 -31 58 -16 21 -15 22 4 22 28 0 37 17 21 38
-7 9 7 -2 32 -25 61 -58 145 -95 232 -101 50 -3 71 -1 77 8 11 18 -8 67 -32
84 -20 14 -19 15 13 19 19 2 9 3 -22 1 -33 -2 -60 1 -67 8 -8 8 -12 9 -12 1 0
-12 23 -23 50 -23 23 0 60 -46 60 -74 0 -20 -2 -19 -23 6 -14 18 -38 31 -70
38 -52 11 -67 7 -67 -16 0 -21 -21 -17 -71 15 -39 25 -114 96 -81 77 7 -5 12
-1 12 10 0 16 1 16 13 2 17 -21 107 -81 113 -75 3 3 -20 20 -50 38 -31 19 -56
39 -56 46 0 8 14 22 30 32 l31 18 -33 9 c-28 7 -20 9 47 12 44 2 99 -2 122 -7
104 -27 190 -7 256 57 45 44 48 36 5 -15 l-32 -38 42 40 c37 34 42 37 42 18 0
-30 -72 -89 -133 -109 -48 -16 -146 -16 -217 0 -14 3 -5 -1 20 -9 25 -8 81
-20 125 -27 69 -11 75 -13 45 -18 -34 -5 -33 -6 24 -18 32 -6 63 -9 70 -6 6 3
-5 -8 -24 -26 l-35 -31 33 16 c18 9 52 33 74 53 23 20 38 31 33 23 -6 -11 -4
-13 11 -7 31 12 -77 -94 -118 -115 -45 -23 -61 -43 -23 -29 39 15 109 65 138
99 14 17 27 28 29 25 7 -6 49 41 52 57 1 8 14 41 30 74 30 64 44 129 30 138
-5 3 -37 -2 -71 -11 -45 -12 -62 -21 -60 -32 3 -22 -10 -19 -88 20 -65 33 -76
35 -165 35 -84 0 -101 -3 -147 -27 -28 -15 -54 -32 -58 -38 -3 -5 -16 -15 -28
-20 -51 -25 56 58 114 88 56 29 70 32 153 32 103 0 161 -13 175 -38 6 -9 11
-12 11 -6 0 7 -15 25 -34 42 -42 37 -120 56 -194 49 -39 -4 -52 -3 -42 4 16
10 221 9 215 -2 -3 -3 10 -16 28 -29 l32 -23 -25 28 c-22 25 -23 27 -5 21 11
-5 27 -10 35 -14 38 -14 -37 48 -78 66 -56 23 -166 34 -207 20z m35 -194 c0
-9 -5 -14 -12 -12 -18 6 -21 28 -4 28 9 0 16 -7 16 -16z m90 -33 c0 -31 -47
-66 -90 -66 -42 0 -93 30 -98 59 -5 23 31 21 53 -4 26 -29 61 -25 86 9 23 31
49 32 49 2z m177 -69 c-20 -29 -41 -47 -55 -48 -18 -1 -14 6 25 52 56 64 77
61 30 -4z m48 -101 c-21 -43 -29 -39 -8 4 9 19 18 33 21 31 2 -2 -4 -18 -13
-35z"/>
<path d="M1838 2676 c-83 -24 -113 -47 -116 -90 l-3 -38 30 35 c53 60 151 85
260 68 60 -10 178 -57 168 -67 -3 -3 -25 5 -49 17 -51 27 -198 38 -264 20 -53
-14 -108 -51 -112 -76 -4 -17 0 -16 24 7 45 42 100 61 181 61 64 -1 80 -5 140
-38 85 -46 101 -60 46 -41 -66 23 -153 30 -219 16 -59 -12 -183 -69 -153 -70
9 0 24 -9 35 -21 10 -12 33 -31 49 -42 l30 -22 -22 29 c-13 16 -23 33 -23 39
0 5 10 -3 22 -18 44 -56 144 -79 243 -55 22 6 76 10 119 11 l79 0 -54 57 c-42
43 -45 48 -12 20 23 -20 52 -42 65 -49 22 -12 22 -11 8 6 -10 13 -11 16 -2 11
20 -12 81 3 91 22 17 33 19 80 4 102 -11 16 -24 21 -56 20 -27 -1 -75 12 -132
34 -49 19 -84 35 -77 36 7 0 10 5 7 10 -4 6 -23 10 -43 10 -20 -1 -77 1 -127
4 -61 4 -105 1 -137 -8z m442 -193 c0 -8 -9 0 -50 45 l-45 47 48 -45 c26 -24
47 -45 47 -47z m-250 32 c0 -8 -4 -15 -9 -15 -13 0 -22 16 -14 24 11 11 23 6
23 -9z m-67 -35 c35 -33 66 -36 109 -11 35 20 39 20 45 5 11 -29 -32 -54 -92
-54 -46 0 -57 4 -74 26 -20 25 -28 54 -16 54 3 0 16 -9 28 -20z"/>
<path d="M1393 2545 c0 -44 2 -61 4 -37 2 23 2 59 0 80 -2 20 -4 1 -4 -43z"/>
<path d="M3593 2430 c0 -25 2 -35 4 -22 2 12 2 32 0 45 -2 12 -4 2 -4 -23z"/>
<path d="M1290 2456 c0 -2 7 -23 15 -46 20 -56 19 -69 -6 -78 l-20 -8 20 -18
c14 -13 28 -16 45 -12 23 6 28 1 52 -46 28 -57 61 -98 78 -98 18 0 13 95 -6
117 -15 16 -45 100 -61 168 -4 18 -5 17 -6 -3 -1 -20 -4 -21 -22 -12 -11 7
-23 9 -26 6 -4 -3 -12 3 -20 14 -12 17 -43 29 -43 16z m117 -82 c-3 -3 -12 -4
-19 -1 -8 3 -5 6 6 6 11 1 17 -2 13 -5z"/>
<path d="M1809 2397 c54 -58 111 -80 211 -81 69 0 95 4 138 23 29 13 51 26 48
28 -2 3 -41 -5 -85 -16 -44 -12 -98 -21 -119 -21 -61 0 -134 27 -182 67 l-45
37 34 -37z"/>
<path d="M1695 2376 c19 -62 41 -101 82 -146 37 -42 100 -86 109 -77 3 3 -7
12 -23 21 -36 18 -96 83 -119 128 -15 29 -10 26 45 -26 34 -32 65 -55 69 -51
4 3 -2 11 -13 18 -40 22 -115 100 -132 138 -24 52 -34 49 -18 -5z"/>
<path d="M1769 2373 c43 -63 135 -104 226 -102 31 1 23 4 -39 15 -93 17 -122
31 -172 82 -36 35 -37 36 -15 5z"/>
<path d="M3138 2363 c7 -3 16 -2 19 1 4 3 -2 6 -13 5 -11 0 -14 -3 -6 -6z"/>
<path d="M2226 2279 c-33 -21 -55 -39 -49 -39 12 0 101 58 109 71 8 13 5 12
-60 -32z"/>
<path d="M2294 2277 c-11 -13 -39 -36 -63 -52 l-43 -29 -19 22 c-17 21 -21 22
-61 12 -25 -6 -53 -23 -65 -38 l-23 -27 0 27 c0 30 40 68 74 68 11 1 32 7 46
14 l25 14 -27 -1 c-14 -1 -24 -5 -22 -8 2 -4 -14 -9 -34 -13 -48 -7 -75 -35
-70 -73 3 -27 4 -28 63 -27 43 0 78 9 121 28 59 26 134 89 122 101 -3 3 -14
-5 -24 -18z"/>
<path d="M2371 2277 c-13 -21 -12 -21 5 -5 10 10 16 20 13 22 -3 3 -11 -5 -18
-17z"/>
<path d="M2339 2233 c-13 -16 -12 -17 4 -4 9 7 17 15 17 17 0 8 -8 3 -21 -13z"/>
<path d="M2304 2188 l-19 -23 23 19 c21 18 27 26 19 26 -2 0 -12 -10 -23 -22z"/>
<path d="M3685 2166 c-17 -23 -41 -45 -53 -51 -12 -5 -22 -13 -22 -17 0 -27
60 18 90 68 31 49 21 49 -15 0z"/>
<path d="M1410 2140 c37 -44 47 -50 80 -50 23 0 48 8 64 21 36 28 23 43 -17
19 -50 -31 -80 -26 -120 20 -19 22 -37 40 -41 40 -5 0 11 -22 34 -50z"/>
<path d="M3541 2154 c0 -11 3 -14 6 -6 3 7 2 16 -1 19 -3 4 -6 -2 -5 -13z"/>
<path d="M2250 2143 c-58 -22 -102 -44 -98 -48 5 -6 107 33 123 47 10 9 -2 10
-25 1z"/>
<path d="M2850 2130 c0 -5 5 -10 11 -10 5 0 7 5 4 10 -3 6 -8 10 -11 10 -2 0
-4 -4 -4 -10z"/>
<path d="M1970 2120 c8 -5 20 -10 25 -10 6 0 3 5 -5 10 -8 5 -19 10 -25 10 -5
0 -3 -5 5 -10z"/>
<path d="M3140 2126 c0 -9 30 -14 35 -6 4 6 -3 10 -14 10 -12 0 -21 -2 -21 -4z"/>
<path d="M1580 2117 c0 -24 52 -220 70 -262 12 -27 32 -88 44 -135 30 -109 84
-216 101 -198 3 3 -1 46 -10 95 -13 69 -25 100 -55 143 -20 30 -41 66 -45 80
-7 23 -5 23 26 -9 19 -19 51 -45 72 -59 34 -23 37 -28 37 -72 0 -26 13 -90 29
-141 16 -52 35 -115 42 -141 13 -48 35 -69 45 -43 3 7 -4 49 -15 92 -11 43
-23 89 -26 103 -12 55 26 -44 51 -133 54 -195 75 -257 98 -284 14 -15 27 -25
31 -21 4 4 -4 21 -18 37 -14 17 -28 50 -32 73 -4 24 -11 51 -16 60 -6 11 -5
24 3 37 18 29 -13 157 -63 261 -23 47 -46 95 -51 106 -6 12 -48 48 -94 79 -88
59 -134 109 -160 170 -20 49 -12 55 16 10 35 -57 111 -141 161 -179 48 -36 59
-37 59 -4 0 10 5 18 11 18 18 0 131 -120 169 -178 21 -33 37 -49 43 -43 12 12
-102 180 -170 249 -37 37 -78 64 -145 96 -98 46 -140 81 -182 156 -14 25 -26
42 -26 37z m310 -427 c8 -14 8 -26 0 -40 -15 -27 -38 -25 -52 5 -20 44 29 77
52 35z"/>
<path d="M1845 1680 c-4 -6 -1 -10 4 -10 6 0 10 -4 9 -9 -2 -5 2 -10 7 -11 6
0 11 5 13 13 3 17 -25 31 -33 17z"/>
<path d="M2006 2074 c-9 -8 -16 -22 -16 -29 0 -7 7 -21 16 -29 8 -9 22 -16 29
-16 7 0 21 7 29 16 9 8 16 22 16 29 0 7 -7 21 -16 29 -8 9 -22 16 -29 16 -7 0
-21 -7 -29 -16z m44 -29 c0 -8 -4 -15 -10 -15 -5 0 -10 7 -10 15 0 8 5 15 10
15 6 0 10 -7 10 -15z"/>
<path d="M3055 2074 c-20 -20 -16 -53 8 -68 39 -24 79 44 41 71 -23 17 -29 16
-49 -3z m45 -27 c0 -8 -3 -17 -7 -20 -9 -9 -34 13 -27 24 8 14 34 11 34 -4z"/>
<path d="M3479 2045 c-34 -55 -77 -86 -168 -121 -94 -36 -151 -88 -221 -201
-30 -48 -59 -91 -65 -95 -6 -5 -6 -8 0 -8 6 0 2 -7 -8 -14 -15 -12 -15 -15 -3
-25 12 -10 21 -2 51 45 38 59 109 135 144 153 29 16 35 -15 12 -63 -104 -218
-146 -350 -121 -381 16 -20 -17 -132 -53 -179 -24 -31 -26 -36 -9 -27 39 21
68 75 96 176 54 193 67 237 72 232 2 -2 0 -16 -5 -30 -5 -14 -13 -53 -17 -86
-5 -51 -4 -61 8 -61 11 0 23 30 42 107 15 58 36 125 46 149 11 24 20 63 20 88
0 43 2 46 63 89 54 40 64 44 74 30 10 -13 14 -10 27 21 9 21 18 61 21 89 4 29
11 74 17 100 6 26 9 50 7 51 -2 2 -16 -15 -30 -39z m-38 -127 c-24 -49 -36
-65 -71 -93 -18 -14 -15 -9 8 19 19 21 43 58 55 82 11 24 23 42 25 39 2 -2 -5
-23 -17 -47z m-196 -214 c-21 -22 -16 -59 9 -57 13 1 15 -2 7 -10 -14 -14 -41
9 -41 37 0 22 17 46 33 46 5 0 1 -7 -8 -16z m35 -19 c0 -8 -9 -15 -20 -15 -20
0 -26 11 -13 23 12 13 33 7 33 -8z"/>
<path d="M2745 1966 c-20 -15 -20 -16 8 -64 35 -65 36 -120 3 -151 -24 -23
-25 -23 -19 -2 5 18 1 21 -25 21 -22 0 -38 -10 -61 -35 -60 -68 -105 -71 -170
-10 -54 51 -104 62 -114 25 -6 -25 9 -37 74 -58 l54 -17 3 -60 c4 -73 14 -86
45 -57 31 29 37 28 78 -14 18 -20 45 -40 57 -45 52 -20 145 29 179 95 33 63
10 228 -45 330 -31 56 -40 62 -67 42z"/>
<path d="M2667 1890 c4 -25 7 -53 7 -62 0 -13 4 -14 13 -6 17 14 16 24 -7 73
l-19 40 6 -45z"/>
<path d="M3388 1772 c-26 -41 -43 -83 -57 -149 -24 -108 -24 -103 -11 -103 28
0 122 260 108 299 -1 6 -20 -15 -40 -47z"/>
<path d="M2590 1780 c-8 -5 -39 -10 -68 -10 -49 0 -52 -1 -38 -16 9 -8 21 -24
26 -35 22 -39 76 -15 109 49 13 24 -1 30 -29 12z"/>
<path d="M1430 1633 c1 -15 79 -97 86 -90 4 3 -10 26 -31 49 -40 44 -55 56
-55 41z"/>
<path d="M2305 1419 c-43 -17 -88 -28 -99 -25 -10 3 -28 1 -38 -5 -24 -13 -24
-42 0 -35 9 3 96 1 192 -6 96 -6 222 -10 280 -9 119 2 166 -7 164 -33 -2 -12
10 -7 43 20 35 29 47 34 56 24 9 -10 9 -11 -3 -6 -8 4 -4 -2 9 -13 13 -12 29
-21 37 -21 19 0 32 31 24 60 -5 23 -11 25 -60 26 -33 0 -89 12 -137 28 -68 24
-91 27 -130 21 -56 -9 -113 -9 -198 -1 -51 5 -72 1 -140 -25z"/>
<path d="M1811 1312 c50 -87 57 -138 58 -432 1 -278 -38 -477 -116 -593 -18
-27 -32 -51 -31 -52 2 -1 22 -5 45 -9 42 -6 43 -5 78 41 45 62 75 141 82 220
6 65 10 70 45 52 23 -13 33 -5 42 34 4 19 3 26 -4 22 -5 -3 -10 2 -10 12 0 10
-7 28 -15 41 -13 17 -13 21 -2 16 8 -3 20 -16 27 -28 11 -22 14 -23 41 -9 21
11 33 11 49 3 16 -9 20 -8 20 5 0 15 -74 75 -94 75 -15 1 -62 37 -56 43 3 3
35 -9 73 -27 37 -18 67 -28 67 -24 0 24 -25 50 -68 72 -83 42 -80 57 5 22 l78
-32 3 -73 c3 -73 4 -74 47 -117 25 -24 45 -51 45 -61 0 -15 -2 -16 -10 -3 -12
17 -7 -13 16 -96 15 -54 29 -72 117 -144 37 -29 58 -55 63 -75 16 -71 46 -155
54 -155 15 0 12 16 -19 93 -27 68 -38 149 -46 327 -2 33 -5 36 -63 60 -54 22
-98 50 -80 50 4 0 -14 20 -40 45 -26 24 -42 45 -35 45 7 0 22 -14 35 -30 13
-18 24 -26 28 -19 4 6 12 -2 19 -18 9 -21 30 -38 84 -63 69 -33 78 -35 205
-38 l133 -4 69 37 c39 20 70 32 70 27 0 -5 -25 -20 -55 -32 -30 -12 -55 -26
-55 -31 0 -5 -28 -9 -62 -10 l-63 0 36 -14 c74 -27 80 -38 73 -143 l-7 -93 85
83 c77 75 86 89 98 138 17 74 34 104 72 133 72 54 90 57 35 7 -31 -28 -61 -60
-66 -69 -8 -15 -4 -17 32 -15 22 1 52 -2 65 -7 16 -6 29 -6 38 2 11 9 14 8 14
-2 0 -12 -65 -271 -86 -344 -4 -13 -3 -17 4 -10 5 6 22 55 36 110 35 127 34
124 41 99 8 -26 44 -44 65 -33 8 4 23 10 33 13 11 4 17 16 18 38 0 18 3 26 5
18 19 -56 40 -91 59 -96 22 -6 75 11 75 23 0 5 -15 51 -34 104 -56 156 -66
224 -64 431 2 132 3 151 5 68 2 -63 6 -122 10 -130 3 -8 5 -18 5 -22 -1 -5 7
-8 18 -8 10 0 23 -7 28 -16 5 -10 11 96 15 273 4 158 11 305 16 327 5 21 6 35
2 30 -4 -5 -54 -70 -112 -144 -127 -165 -304 -379 -333 -402 -11 -10 -17 -18
-12 -18 22 0 -50 -60 -98 -82 -46 -20 -67 -23 -196 -23 -179 0 -229 14 -307
88 -29 27 -51 53 -48 57 2 4 -48 69 -112 146 -64 76 -151 184 -193 239 -43 55
-90 111 -105 125 -22 21 -20 14 16 -48z m183 -231 c4 -5 -3 -7 -14 -4 -23 6
-26 13 -6 13 8 0 17 -4 20 -9z m6 -67 c0 -2 -9 0 -20 6 -11 6 -20 13 -20 16 0
2 9 0 20 -6 11 -6 20 -13 20 -16z m10 -24 c19 -11 31 -19 25 -19 -5 0 -26 8
-45 19 -19 11 -30 19 -25 19 6 0 26 -8 45 -19z m51 -64 c47 -20 65 -43 72 -95
l5 -43 -31 30 c-18 17 -54 39 -81 49 -26 10 -48 21 -47 26 1 4 1 19 1 33 0 29
12 29 81 0z m145 -238 l19 -23 -25 20 c-14 11 -27 21 -29 22 -2 2 0 3 6 3 5 0
18 -10 29 -22z m693 -5 c-40 -47 -42 -49 -34 -33 10 19 47 60 53 60 3 0 -5
-12 -19 -27z m-498 -108 c9 -9 34 -23 55 -30 32 -12 35 -14 14 -15 -26 0 -66
22 -87 48 -8 9 -12 40 -12 71 l2 56 6 -57 c3 -32 13 -65 22 -73z m316 58 c-2
-16 -4 -5 -4 22 0 28 2 40 4 28 2 -13 2 -35 0 -50z m390 -35 c-3 -7 -5 -2 -5
12 0 14 2 19 5 13 2 -7 2 -19 0 -25z m-237 -22 c0 -2 -8 -10 -17 -17 -16 -13
-17 -12 -4 4 13 16 21 21 21 13z m-205 -36 c-3 -5 -16 -10 -28 -9 -20 1 -20 2
3 9 14 4 26 8 28 9 2 1 0 -3 -3 -9z"/>
<path d="M2838 1269 c10 -13 9 -19 -3 -29 -9 -7 -18 -10 -22 -7 -3 4 -12 2
-20 -5 -26 -21 -287 -35 -364 -19 -70 15 -80 4 -46 -48 20 -30 37 -43 64 -49
46 -11 172 -32 228 -37 22 -3 57 -7 77 -11 20 -3 46 -3 57 1 21 6 40 45 43 88
1 15 7 27 13 27 6 0 5 3 -1 8 -20 12 -20 49 1 73 11 13 13 18 4 12 -12 -10
-18 -10 -29 0 -12 10 -12 9 -2 -4z"/>
<path d="M2997 1143 c-10 -9 -9 -23 2 -23 5 0 11 7 15 15 5 15 -5 20 -17 8z"/>
<path d="M2184 1045 c-10 -25 3 -44 25 -38 25 6 28 38 5 47 -22 8 -24 8 -30
-9z m26 -5 c0 -5 -4 -10 -10 -10 -5 0 -10 5 -10 10 0 6 5 10 10 10 6 0 10 -4
10 -10z"/>
<path d="M2480 1050 c-11 -7 11 -10 73 -10 48 0 87 4 87 9 0 12 -142 13 -160
1z"/>
<path d="M2874 1045 c-4 -9 -2 -21 4 -27 15 -15 44 -1 40 19 -4 23 -36 29 -44
8z m26 -5 c0 -5 -5 -10 -11 -10 -5 0 -7 5 -4 10 3 6 8 10 11 10 2 0 4 -4 4
-10z"/>
<path d="M3324 891 c3 -31 18 -78 35 -110 43 -83 69 -208 52 -254 -5 -14 -12
-9 -35 28 -16 25 -33 45 -39 45 -33 0 34 -225 88 -296 39 -51 96 -84 147 -84
79 0 80 13 11 76 -35 30 -63 59 -63 64 0 7 47 20 95 26 6 0 18 4 28 7 38 15
54 19 91 23 22 3 45 12 51 20 6 8 20 16 33 17 20 1 26 9 23 29 -1 8 103 -53
176 -103 23 -16 44 -25 47 -20 3 5 -21 26 -54 46 -34 21 -59 43 -57 49 3 6 9
10 14 9 5 -1 9 6 10 16 1 13 -10 22 -34 29 -20 6 -40 9 -45 6 -4 -3 -8 -1 -8
4 0 5 -19 15 -42 21 -192 57 -452 242 -509 363 l-20 43 5 -54z"/>
<path d="M2764 899 c-8 -14 21 -43 35 -35 6 4 11 16 11 27 0 21 -34 27 -46 8z
m36 -9 c0 -5 -4 -10 -10 -10 -5 0 -10 5 -10 10 0 6 5 10 10 10 6 0 10 -4 10
-10z"/>
<path d="M2290 885 c0 -20 28 -31 43 -16 13 13 10 16 -20 25 -17 6 -23 3 -23
-9z"/>
<path d="M2710 844 c-25 -18 -57 -38 -72 -45 -16 -6 -28 -18 -28 -25 0 -21
-44 -27 -138 -20 -132 11 -175 23 -223 63 l-44 37 34 -36 c47 -51 142 -95 221
-103 88 -9 229 9 276 35 l39 20 -50 -6 c-47 -6 -49 -5 -29 9 33 25 77 88 68
97 -5 4 -29 -7 -54 -26z"/>
<path d="M1711 527 c-67 -94 -71 -110 -36 -147 16 -16 32 -27 36 -23 22 23 69
234 52 232 -4 0 -28 -28 -52 -62z"/>
<path d="M2030 500 c0 -19 3 -21 12 -12 9 9 9 15 0 24 -9 9 -12 7 -12 -12z"/>
<path d="M1160 430 c-80 -49 -117 -80 -97 -80 6 0 187 118 202 131 25 24 -19
2 -105 -51z"/>
<path d="M2044 440 c3 -14 18 -79 32 -145 14 -66 31 -127 36 -135 7 -11 8 -8
4 10 -39 188 -60 277 -68 285 -6 6 -7 1 -4 -15z"/>
<path d="M1445 305 c-71 -46 -136 -89 -143 -95 -21 -19 -10 -45 21 -48 38 -5
60 14 47 38 -11 21 -19 13 133 124 42 31 77 58 77 61 0 7 9 12 -135 -80z"/>
<path d="M673 253 c-33 -31 -114 -158 -138 -216 -26 -63 2 -32 41 45 41 83 65
120 108 166 37 39 29 43 -11 5z"/>
<path d="M4520 186 c28 -37 64 -95 81 -128 17 -33 33 -57 36 -54 10 9 -80 157
-125 205 -42 46 -42 46 8 -23z"/>
</g>
</svg>